<?xml version="1.0" standalone="no"?>
<!DOCTYPE svg PUBLIC "-//W3C//DTD SVG 20010904//EN"
 "http://www.w3.org/TR/2001/REC-SVG-20010904/DTD/svg10.dtd">
<svg version="1.0" xmlns="http://www.w3.org/2000/svg"
 width="256.000000pt" height="256.000000pt" viewBox="0 0 256.000000 256.000000"
 preserveAspectRatio="xMidYMid meet">

<g transform="translate(0.000000,256.000000) scale(0.100000,-0.100000)"
fill="#000000" stroke="none">
<path d="M1125 2469 c-277 -38 -554 -184 -733 -387 -149 -167 -241 -351 -288
-572 -22 -104 -25 -331 -5 -440 45 -250 172 -485 360 -663 129 -123 270 -209
436 -265 426 -146 909 -35 1229 282 234 232 356 526 356 856 0 314 -112 595
-327 821 -173 182 -398 307 -637 355 -93 18 -303 25 -391 13z m-36 -691 c21
-46 73 -154 115 -242 42 -87 76 -162 76 -167 0 -36 32 23 131 241 l114 250
133 0 c104 0 133 -3 130 -13 -2 -7 -87 -170 -190 -363 l-188 -351 0 -216 0
-217 -120 0 -120 0 0 216 0 215 -200 361 c-110 199 -200 363 -200 365 0 2 63
3 140 3 l141 0 38 -82z"/>
</g>
</svg>
